+ filenameToUse=/home/horvathandras/vatic/vatic/public/videouploads/DJI_0022_vadvalto.avi
+ filenameNoDot=DJI_0022_vadvalto_Kotcse_2018.04.25._napos_kalaszos_T1
+ FullUploadPath=/home/horvathandras/vatic/vatic/public/videouploads/DJI_0022_vadvalto.avi
+ VideoDataDir=/home/horvathandras/vatic/vatic/videos
+ AvailableObjectTypes='PozitívROI NegatívROI Túrás ~Friss ~Régebbi Rágás ~Friss ~Régebbi Törés ~Friss ~Régebbi Taposás ~Friss ~Régebbi EgészségesNövény Egyéb1 Egyéb2 Egyéb3 Egyéb4 Egyéb5'
++ dirname /home/horvathandras/vatic/vatic/vatic_publisher.sh
+ cd /home/horvathandras/vatic/vatic
+ touch /home/horvathandras/vatic/vatic/public/videouploads/DJI_0022_vadvalto.avi
+ chmod 744 /home/horvathandras/vatic/vatic/public/videouploads/DJI_0022_vadvalto.avi
+ mkdir /home/horvathandras/vatic/vatic/videos/DJI_0022_vadvalto_Kotcse_2018.04.25._napos_kalaszos_T1
+ turkic extract /home/horvathandras/vatic/vatic/public/videouploads/DJI_0022_vadvalto.avi /home/horvathandras/vatic/vatic/videos/DJI_0022_vadvalto_Kotcse_2018.04.25._napos_kalaszos_T1 --no-resize
ffmpeg version 2.8.14-0ubuntu0.16.04.1 Copyright (c) 2000-2018 the FFmpeg developers
  built with gcc 5.4.0 (Ubuntu 5.4.0-6ubuntu1~16.04.9) 20160609
  configuration: --prefix=/usr --extra-version=0ubuntu0.16.04.1 --build-suffix=-ffmpeg --toolchain=hardened --libdir=/usr/lib/x86_64-linux-gnu --incdir=/usr/include/x86_64-linux-gnu --cc=cc --cxx=g++ --enable-gpl --enable-shared --disable-stripping --disable-decoder=libopenjpeg --disable-decoder=libschroedinger --enable-avresample --enable-avisynth --enable-gnutls --enable-ladspa --enable-libass --enable-libbluray --enable-libbs2b --enable-libcaca --enable-libcdio --enable-libflite --enable-libfontconfig --enable-libfreetype --enable-libfribidi --enable-libgme --enable-libgsm --enable-libmodplug --enable-libmp3lame --enable-libopenjpeg --enable-libopus --enable-libpulse --enable-librtmp --enable-libschroedinger --enable-libshine --enable-libsnappy --enable-libsoxr --enable-libspeex --enable-libssh --enable-libtheora --enable-libtwolame --enable-libvorbis --enable-libvpx --enable-libwavpack --enable-libwebp --enable-libx265 --enable-libxvid --enable-libzvbi --enable-openal --enable-opengl --enable-x11grab --enable-libdc1394 --enable-libiec61883 --enable-libzmq --enable-frei0r --enable-libx264 --enable-libopencv
  libavutil      54. 31.100 / 54. 31.100
  libavcodec     56. 60.100 / 56. 60.100
  libavformat    56. 40.101 / 56. 40.101
  libavdevice    56.  4.100 / 56.  4.100
  libavfilter     5. 40.101 /  5. 40.101
  libavresample   2.  1.  0 /  2.  1.  0
  libswscale      3.  1.101 /  3.  1.101
  libswresample   1.  2.101 /  1.  2.101
  libpostproc    53.  3.100 / 53.  3.100
Input #0, mov,mp4,m4a,3gp,3g2,mj2, from '/home/horvathandras/vatic/vatic/public/videouploads/DJI_0022_vadvalto.avi':
  Metadata:
    major_brand     : qt  
    minor_version   : 537986816
    compatible_brands: qt  
    creation_time   : 2018-04-25 16:02:12
    location        : +46.726533+17.867713+30.900
    location-{    : +46.726533+17.867713+30.900
    comment         : DE=None, Mode=P, DSW=0001
  Duration: 00:00:46.78, start: 0.000000, bitrate: 100306 kb/s
    Stream #0:0(eng): Video: h264 (High) (avc1 / 0x31637661), yuv420p(tv, bt709), 4096x2160 [SAR 1:1 DAR 256:135], 100220 kb/s, 29.97 fps, 29.97 tbr, 30k tbn, 59.94 tbc (default)
    Metadata:
      creation_time   : 2018-04-25 16:02:12
      handler_name    : DJI.AVC
      encoder         : AVC encoder
    Stream #0:1(eng): Data: none (priv / 0x76697270), 81 kb/s
    Metadata:
      creation_time   : 2018-04-25 16:02:12
      handler_name    : DJI.Meta
Please use -b:a or -b:v, -b is ambiguous
[swscaler @ 0x9a5f40] deprecated pixel format used, make sure you did set range correctly
Output #0, image2, to '/tmp/pyvision-ffmpeg-899097071/%d.jpg':
  Metadata:
    major_brand     : qt  
    minor_version   : 537986816
    compatible_brands: qt  
    comment         : DE=None, Mode=P, DSW=0001
    location        : +46.726533+17.867713+30.900
    location-{    : +46.726533+17.867713+30.900
    encoder         : Lavf56.40.101
    Stream #0:0(eng): Video: mjpeg, yuvj420p(pc), 4096x2160 [SAR 1:1 DAR 256:135], q=2-31, 10000 kb/s, 29.97 fps, 29.97 tbn, 29.97 tbc (default)
    Metadata:
      creation_time   : 2018-04-25 16:02:12
      handler_name    : DJI.AVC
      encoder         : Lavc56.60.100 mjpeg
Stream mapping:
  Stream #0:0 -> #0:0 (h264 (native) -> mjpeg (native))
Press [q] to stop, [?] for help
frame=    1 fps=0.0 q=17.3 size=N/A time=00:00:00.03 bitrate=N/A    frame=    5 fps=3.5 q=24.8 size=N/A time=00:00:00.16 bitrate=N/A    frame=    9 fps=4.6 q=24.8 size=N/A time=00:00:00.30 bitrate=N/A    frame=   13 fps=5.2 q=24.8 size=N/A time=00:00:00.43 bitrate=N/A    frame=   17 fps=5.6 q=24.8 size=N/A time=00:00:00.56 bitrate=N/A    frame=   21 fps=5.9 q=24.8 size=N/A time=00:00:00.70 bitrate=N/A    frame=   25 fps=6.1 q=24.8 size=N/A time=00:00:00.83 bitrate=N/A    frame=   29 fps=6.2 q=24.8 size=N/A time=00:00:00.96 bitrate=N/A    frame=   33 fps=6.3 q=24.8 size=N/A time=00:00:01.10 bitrate=N/A    frame=   37 fps=6.4 q=24.8 size=N/A time=00:00:01.23 bitrate=N/A    frame=   41 fps=6.5 q=24.8 size=N/A time=00:00:01.36 bitrate=N/A    frame=   45 fps=6.6 q=24.8 size=N/A time=00:00:01.50 bitrate=N/A    frame=   49 fps=6.6 q=24.8 size=N/A time=00:00:01.63 bitrate=N/A    frame=   53 fps=6.7 q=24.8 size=N/A time=00:00:01.76 bitrate=N/A    frame=   57 fps=6.7 q=24.8 size=N/A time=00:00:01.90 bitrate=N/A    frame=   61 fps=6.8 q=24.8 size=N/A time=00:00:02.03 bitrate=N/A    frame=   65 fps=6.8 q=24.8 size=N/A time=00:00:02.16 bitrate=N/A    frame=   69 fps=6.9 q=24.8 size=N/A time=00:00:02.30 bitrate=N/A    frame=   73 fps=6.9 q=24.8 size=N/A time=00:00:02.43 bitrate=N/A    frame=   77 fps=6.9 q=24.8 size=N/A time=00:00:02.56 bitrate=N/A    frame=   81 fps=6.9 q=24.8 size=N/A time=00:00:02.70 bitrate=N/A    frame=   85 fps=7.0 q=24.8 size=N/A time=00:00:02.83 bitrate=N/A    frame=   89 fps=7.0 q=24.8 size=N/A time=00:00:02.96 bitrate=N/A    frame=   93 fps=7.0 q=24.8 size=N/A time=00:00:03.10 bitrate=N/A    frame=   97 fps=7.0 q=24.8 size=N/A time=00:00:03.23 bitrate=N/A    frame=  101 fps=7.0 q=24.8 size=N/A time=00:00:03.37 bitrate=N/A    frame=  105 fps=7.0 q=24.8 size=N/A time=00:00:03.50 bitrate=N/A    frame=  109 fps=7.1 q=24.8 size=N/A time=00:00:03.63 bitrate=N/A    frame=  113 fps=7.1 q=24.8 size=N/A time=00:00:03.77 bitrate=N/A    frame=  117 fps=7.1 q=24.8 size=N/A time=00:00:03.90 bitrate=N/A    frame=  121 fps=7.1 q=24.8 size=N/A time=00:00:04.03 bitrate=N/A    frame=  125 fps=7.1 q=24.8 size=N/A time=00:00:04.17 bitrate=N/A    frame=  129 fps=7.1 q=24.8 size=N/A time=00:00:04.30 bitrate=N/A    frame=  133 fps=7.1 q=24.8 size=N/A time=00:00:04.43 bitrate=N/A    frame=  137 fps=7.1 q=24.8 size=N/A time=00:00:04.57 bitrate=N/A    frame=  141 fps=7.2 q=24.8 size=N/A time=00:00:04.70 bitrate=N/A    frame=  145 fps=7.2 q=24.8 size=N/A time=00:00:04.83 bitrate=N/A    frame=  149 fps=7.2 q=24.8 size=N/A time=00:00:04.97 bitrate=N/A    frame=  153 fps=7.2 q=24.8 size=N/A time=00:00:05.10 bitrate=N/A    frame=  157 fps=7.2 q=24.8 size=N/A time=00:00:05.23 bitrate=N/A    frame=  161 fps=7.2 q=24.8 size=N/A time=00:00:05.37 bitrate=N/A    frame=  165 fps=7.2 q=24.8 size=N/A time=00:00:05.50 bitrate=N/A    frame=  169 fps=7.2 q=24.8 size=N/A time=00:00:05.63 bitrate=N/A    frame=  173 fps=7.2 q=24.8 size=N/A time=00:00:05.77 bitrate=N/A    frame=  177 fps=7.2 q=24.8 size=N/A time=00:00:05.90 bitrate=N/A    frame=  181 fps=7.2 q=24.8 size=N/A time=00:00:06.03 bitrate=N/A    frame=  185 fps=7.2 q=24.8 size=N/A time=00:00:06.17 bitrate=N/A    frame=  189 fps=7.2 q=24.8 size=N/A time=00:00:06.30 bitrate=N/A    frame=  193 fps=7.2 q=24.8 size=N/A time=00:00:06.43 bitrate=N/A    frame=  197 fps=7.2 q=24.8 size=N/A time=00:00:06.57 bitrate=N/A    frame=  201 fps=7.2 q=24.8 size=N/A time=00:00:06.70 bitrate=N/A    frame=  205 fps=7.2 q=24.8 size=N/A time=00:00:06.84 bitrate=N/A    frame=  209 fps=7.3 q=24.8 size=N/A time=00:00:06.97 bitrate=N/A    frame=  213 fps=7.3 q=24.8 size=N/A time=00:00:07.10 bitrate=N/A    frame=  217 fps=7.3 q=24.8 size=N/A time=00:00:07.24 bitrate=N/A    frame=  221 fps=7.3 q=24.8 size=N/A time=00:00:07.37 bitrate=N/A    frame=  225 fps=7.3 q=24.8 size=N/A time=00:00:07.50 bitrate=N/A    frame=  229 fps=7.3 q=24.8 size=N/A time=00:00:07.64 bitrate=N/A    frame=  233 fps=7.3 q=24.8 size=N/A time=00:00:07.77 bitrate=N/A    frame=  237 fps=7.3 q=24.8 size=N/A time=00:00:07.90 bitrate=N/A    frame=  241 fps=7.3 q=24.8 size=N/A time=00:00:08.04 bitrate=N/A    frame=  245 fps=7.3 q=24.8 size=N/A time=00:00:08.17 bitrate=N/A    frame=  249 fps=7.3 q=24.8 size=N/A time=00:00:08.30 bitrate=N/A    frame=  253 fps=7.3 q=24.8 size=N/A time=00:00:08.44 bitrate=N/A    frame=  257 fps=7.3 q=24.8 size=N/A time=00:00:08.57 bitrate=N/A    frame=  261 fps=7.3 q=24.8 size=N/A time=00:00:08.70 bitrate=N/A    frame=  265 fps=7.3 q=24.8 size=N/A time=00:00:08.84 bitrate=N/A    frame=  269 fps=7.3 q=24.8 size=N/A time=00:00:08.97 bitrate=N/A    frame=  273 fps=7.3 q=24.8 size=N/A time=00:00:09.10 bitrate=N/A    frame=  277 fps=7.3 q=24.8 size=N/A time=00:00:09.24 bitrate=N/A    frame=  281 fps=7.3 q=24.8 size=N/A time=00:00:09.37 bitrate=N/A    frame=  285 fps=7.3 q=24.8 size=N/A time=00:00:09.50 bitrate=N/A    frame=  289 fps=7.3 q=24.8 size=N/A time=00:00:09.64 bitrate=N/A    frame=  293 fps=7.3 q=24.8 size=N/A time=00:00:09.77 bitrate=N/A    frame=  297 fps=7.3 q=24.8 size=N/A time=00:00:09.90 bitrate=N/A    frame=  301 fps=7.3 q=24.8 size=N/A time=00:00:10.04 bitrate=N/A    frame=  305 fps=7.3 q=24.8 size=N/A time=00:00:10.17 bitrate=N/A    frame=  309 fps=7.3 q=24.8 size=N/A time=00:00:10.31 bitrate=N/A    frame=  313 fps=7.3 q=24.8 size=N/A time=00:00:10.44 bitrate=N/A    frame=  317 fps=7.3 q=24.8 size=N/A time=00:00:10.57 bitrate=N/A    frame=  321 fps=7.3 q=24.8 size=N/A time=00:00:10.71 bitrate=N/A    frame=  325 fps=7.3 q=24.8 size=N/A time=00:00:10.84 bitrate=N/A    frame=  329 fps=7.3 q=24.8 size=N/A time=00:00:10.97 bitrate=N/A    frame=  333 fps=7.3 q=24.8 size=N/A time=00:00:11.11 bitrate=N/A    frame=  337 fps=7.3 q=24.8 size=N/A time=00:00:11.24 bitrate=N/A    frame=  341 fps=7.3 q=24.8 size=N/A time=00:00:11.37 bitrate=N/A    frame=  345 fps=7.3 q=24.8 size=N/A time=00:00:11.51 bitrate=N/A    frame=  349 fps=7.3 q=24.8 size=N/A time=00:00:11.64 bitrate=N/A    frame=  353 fps=7.3 q=24.8 size=N/A time=00:00:11.77 bitrate=N/A    frame=  357 fps=7.3 q=24.8 size=N/A time=00:00:11.91 bitrate=N/A    frame=  361 fps=7.3 q=24.8 size=N/A time=00:00:12.04 bitrate=N/A    frame=  365 fps=7.3 q=24.8 size=N/A time=00:00:12.17 bitrate=N/A    frame=  369 fps=7.3 q=24.8 size=N/A time=00:00:12.31 bitrate=N/A    frame=  373 fps=7.3 q=24.8 size=N/A time=00:00:12.44 bitrate=N/A    frame=  377 fps=7.3 q=24.8 size=N/A time=00:00:12.57 bitrate=N/A    frame=  381 fps=7.3 q=24.8 size=N/A time=00:00:12.71 bitrate=N/A    frame=  385 fps=7.3 q=24.8 size=N/A time=00:00:12.84 bitrate=N/A    frame=  389 fps=7.3 q=24.8 size=N/A time=00:00:12.97 bitrate=N/A    frame=  393 fps=7.3 q=24.8 size=N/A time=00:00:13.11 bitrate=N/A    frame=  397 fps=7.3 q=24.8 size=N/A time=00:00:13.24 bitrate=N/A    frame=  401 fps=7.3 q=24.8 size=N/A time=00:00:13.38 bitrate=N/A    frame=  405 fps=7.3 q=24.8 size=N/A time=00:00:13.51 bitrate=N/A    frame=  409 fps=7.3 q=24.8 size=N/A time=00:00:13.64 bitrate=N/A    frame=  413 fps=7.3 q=24.8 size=N/A time=00:00:13.78 bitrate=N/A    frame=  417 fps=7.3 q=24.8 size=N/A time=00:00:13.91 bitrate=N/A    frame=  421 fps=7.3 q=24.8 size=N/A time=00:00:14.04 bitrate=N/A    frame=  425 fps=7.3 q=24.8 size=N/A time=00:00:14.18 bitrate=N/A    frame=  429 fps=7.3 q=24.8 size=N/A time=00:00:14.31 bitrate=N/A    frame=  433 fps=7.3 q=24.8 size=N/A time=00:00:14.44 bitrate=N/A    frame=  437 fps=7.3 q=24.8 size=N/A time=00:00:14.58 bitrate=N/A    frame=  441 fps=7.3 q=24.8 size=N/A time=00:00:14.71 bitrate=N/A    frame=  445 fps=7.3 q=24.8 size=N/A time=00:00:14.84 bitrate=N/A    frame=  449 fps=7.3 q=24.8 size=N/A time=00:00:14.98 bitrate=N/A    frame=  453 fps=7.3 q=24.8 size=N/A time=00:00:15.11 bitrate=N/A    frame=  457 fps=7.3 q=24.8 size=N/A time=00:00:15.24 bitrate=N/A    frame=  461 fps=7.3 q=24.8 size=N/A time=00:00:15.38 bitrate=N/A    frame=  465 fps=7.4 q=24.8 size=N/A time=00:00:15.51 bitrate=N/A    frame=  469 fps=7.4 q=24.8 size=N/A time=00:00:15.64 bitrate=N/A    frame=  473 fps=7.4 q=24.8 size=N/A time=00:00:15.78 bitrate=N/A    frame=  477 fps=7.4 q=24.8 size=N/A time=00:00:15.91 bitrate=N/A    frame=  481 fps=7.4 q=24.8 size=N/A time=00:00:16.04 bitrate=N/A    frame=  485 fps=7.4 q=24.8 size=N/A time=00:00:16.18 bitrate=N/A    frame=  489 fps=7.4 q=24.8 size=N/A time=00:00:16.31 bitrate=N/A    frame=  493 fps=7.4 q=24.8 size=N/A time=00:00:16.44 bitrate=N/A    frame=  497 fps=7.4 q=24.8 size=N/A time=00:00:16.58 bitrate=N/A    frame=  501 fps=7.4 q=24.8 size=N/A time=00:00:16.71 bitrate=N/A    frame=  505 fps=7.4 q=24.8 size=N/A time=00:00:16.85 bitrate=N/A    frame=  509 fps=7.4 q=24.8 size=N/A time=00:00:16.98 bitrate=N/A    frame=  513 fps=7.4 q=24.8 size=N/A time=00:00:17.11 bitrate=N/A    frame=  517 fps=7.4 q=24.8 size=N/A time=00:00:17.25 bitrate=N/A    frame=  521 fps=7.4 q=24.8 size=N/A time=00:00:17.38 bitrate=N/A    frame=  525 fps=7.4 q=24.8 size=N/A time=00:00:17.51 bitrate=N/A    frame=  529 fps=7.4 q=24.8 size=N/A time=00:00:17.65 bitrate=N/A    frame=  533 fps=7.4 q=24.8 size=N/A time=00:00:17.78 bitrate=N/A    frame=  537 fps=7.4 q=24.8 size=N/A time=00:00:17.91 bitrate=N/A    frame=  541 fps=7.4 q=24.8 size=N/A time=00:00:18.05 bitrate=N/A    frame=  545 fps=7.4 q=24.8 size=N/A time=00:00:18.18 bitrate=N/A    frame=  549 fps=7.4 q=24.8 size=N/A time=00:00:18.31 bitrate=N/A    frame=  553 fps=7.4 q=24.8 size=N/A time=00:00:18.45 bitrate=N/A    frame=  557 fps=7.4 q=24.8 size=N/A time=00:00:18.58 bitrate=N/A    frame=  561 fps=7.4 q=24.8 size=N/A time=00:00:18.71 bitrate=N/A    frame=  565 fps=7.4 q=24.8 size=N/A time=00:00:18.85 bitrate=N/A    frame=  569 fps=7.4 q=24.8 size=N/A time=00:00:18.98 bitrate=N/A    frame=  573 fps=7.4 q=24.8 size=N/A time=00:00:19.11 bitrate=N/A    frame=  577 fps=7.4 q=24.8 size=N/A time=00:00:19.25 bitrate=N/A    frame=  581 fps=7.4 q=24.8 size=N/A time=00:00:19.38 bitrate=N/A    frame=  585 fps=7.4 q=24.8 size=N/A time=00:00:19.51 bitrate=N/A    frame=  589 fps=7.4 q=24.8 size=N/A time=00:00:19.65 bitrate=N/A    frame=  593 fps=7.4 q=24.8 size=N/A time=00:00:19.78 bitrate=N/A    frame=  597 fps=7.4 q=24.8 size=N/A time=00:00:19.91 bitrate=N/A    frame=  601 fps=7.4 q=24.8 size=N/A time=00:00:20.05 bitrate=N/A    frame=  605 fps=7.4 q=24.8 size=N/A time=00:00:20.18 bitrate=N/A    frame=  609 fps=7.4 q=24.8 size=N/A time=00:00:20.32 bitrate=N/A    frame=  613 fps=7.4 q=24.8 size=N/A time=00:00:20.45 bitrate=N/A    frame=  617 fps=7.4 q=24.8 size=N/A time=00:00:20.58 bitrate=N/A    frame=  621 fps=7.4 q=24.8 size=N/A time=00:00:20.72 bitrate=N/A    frame=  625 fps=7.4 q=24.8 size=N/A time=00:00:20.85 bitrate=N/A    frame=  629 fps=7.4 q=24.8 size=N/A time=00:00:20.98 bitrate=N/A    frame=  633 fps=7.4 q=24.8 size=N/A time=00:00:21.12 bitrate=N/A    frame=  637 fps=7.4 q=24.8 size=N/A time=00:00:21.25 bitrate=N/A    frame=  641 fps=7.4 q=24.8 size=N/A time=00:00:21.38 bitrate=N/A    frame=  645 fps=7.4 q=24.8 size=N/A time=00:00:21.52 bitrate=N/A    frame=  649 fps=7.4 q=24.8 size=N/A time=00:00:21.65 bitrate=N/A    frame=  653 fps=7.4 q=24.8 size=N/A time=00:00:21.78 bitrate=N/A    frame=  657 fps=7.4 q=24.8 size=N/A time=00:00:21.92 bitrate=N/A    frame=  661 fps=7.4 q=24.8 size=N/A time=00:00:22.05 bitrate=N/A    frame=  665 fps=7.4 q=24.8 size=N/A time=00:00:22.18 bitrate=N/A    frame=  669 fps=7.4 q=24.8 size=N/A time=00:00:22.32 bitrate=N/A    frame=  673 fps=7.4 q=24.8 size=N/A time=00:00:22.45 bitrate=N/A    frame=  677 fps=7.4 q=24.8 size=N/A time=00:00:22.58 bitrate=N/A    frame=  681 fps=7.4 q=24.8 size=N/A time=00:00:22.72 bitrate=N/A    frame=  685 fps=7.4 q=24.8 size=N/A time=00:00:22.85 bitrate=N/A    frame=  689 fps=7.4 q=24.8 size=N/A time=00:00:22.98 bitrate=N/A    frame=  693 fps=7.4 q=24.8 size=N/A time=00:00:23.12 bitrate=N/A    frame=  697 fps=7.4 q=24.8 size=N/A time=00:00:23.25 bitrate=N/A    frame=  701 fps=7.4 q=24.8 size=N/A time=00:00:23.39 bitrate=N/A    frame=  705 fps=7.4 q=24.8 size=N/A time=00:00:23.52 bitrate=N/A    frame=  709 fps=7.4 q=24.8 size=N/A time=00:00:23.65 bitrate=N/A    frame=  713 fps=7.4 q=24.8 size=N/A time=00:00:23.79 bitrate=N/A    frame=  717 fps=7.4 q=24.8 size=N/A time=00:00:23.92 bitrate=N/A    frame=  721 fps=7.4 q=24.8 size=N/A time=00:00:24.05 bitrate=N/A    frame=  725 fps=7.4 q=24.8 size=N/A time=00:00:24.19 bitrate=N/A    frame=  729 fps=7.4 q=24.8 size=N/A time=00:00:24.32 bitrate=N/A    frame=  733 fps=7.4 q=24.8 size=N/A time=00:00:24.45 bitrate=N/A    frame=  737 fps=7.4 q=24.8 size=N/A time=00:00:24.59 bitrate=N/A    frame=  741 fps=7.4 q=24.8 size=N/A time=00:00:24.72 bitrate=N/A    frame=  745 fps=7.4 q=24.8 size=N/A time=00:00:24.85 bitrate=N/A    frame=  749 fps=7.4 q=24.8 size=N/A time=00:00:24.99 bitrate=N/A    frame=  753 fps=7.4 q=24.8 size=N/A time=00:00:25.12 bitrate=N/A    frame=  757 fps=7.4 q=24.8 size=N/A time=00:00:25.25 bitrate=N/A    frame=  761 fps=7.4 q=24.8 size=N/A time=00:00:25.39 bitrate=N/A    frame=  765 fps=7.4 q=24.8 size=N/A time=00:00:25.52 bitrate=N/A    frame=  769 fps=7.4 q=24.8 size=N/A time=00:00:25.65 bitrate=N/A    frame=  773 fps=7.4 q=24.8 size=N/A time=00:00:25.79 bitrate=N/A    frame=  777 fps=7.4 q=24.8 size=N/A time=00:00:25.92 bitrate=N/A    frame=  781 fps=7.4 q=24.8 size=N/A time=00:00:26.05 bitrate=N/A    frame=  785 fps=7.4 q=24.8 size=N/A time=00:00:26.19 bitrate=N/A    frame=  789 fps=7.4 q=24.8 size=N/A time=00:00:26.32 bitrate=N/A    frame=  793 fps=7.4 q=24.8 size=N/A time=00:00:26.45 bitrate=N/A    frame=  797 fps=7.4 q=24.8 size=N/A time=00:00:26.59 bitrate=N/A    frame=  801 fps=7.4 q=24.8 size=N/A time=00:00:26.72 bitrate=N/A    frame=  805 fps=7.4 q=24.8 size=N/A time=00:00:26.86 bitrate=N/A    frame=  809 fps=7.4 q=24.8 size=N/A time=00:00:26.99 bitrate=N/A    frame=  813 fps=7.4 q=24.8 size=N/A time=00:00:27.12 bitrate=N/A    frame=  817 fps=7.4 q=24.8 size=N/A time=00:00:27.26 bitrate=N/A    frame=  821 fps=7.4 q=24.8 size=N/A time=00:00:27.39 bitrate=N/A    frame=  825 fps=7.4 q=24.8 size=N/A time=00:00:27.52 bitrate=N/A    frame=  829 fps=7.4 q=24.8 size=N/A time=00:00:27.66 bitrate=N/A    frame=  833 fps=7.4 q=24.8 size=N/A time=00:00:27.79 bitrate=N/A    frame=  837 fps=7.4 q=24.8 size=N/A time=00:00:27.92 bitrate=N/A    frame=  841 fps=7.4 q=24.8 size=N/A time=00:00:28.06 bitrate=N/A    frame=  845 fps=7.4 q=24.8 size=N/A time=00:00:28.19 bitrate=N/A    frame=  849 fps=7.4 q=24.8 size=N/A time=00:00:28.32 bitrate=N/A    frame=  853 fps=7.4 q=24.8 size=N/A time=00:00:28.46 bitrate=N/A    frame=  857 fps=7.4 q=24.8 size=N/A time=00:00:28.59 bitrate=N/A    frame=  861 fps=7.4 q=24.8 size=N/A time=00:00:28.72 bitrate=N/A    frame=  865 fps=7.4 q=24.8 size=N/A time=00:00:28.86 bitrate=N/A    frame=  869 fps=7.4 q=24.8 size=N/A time=00:00:28.99 bitrate=N/A    frame=  873 fps=7.4 q=24.8 size=N/A time=00:00:29.12 bitrate=N/A    frame=  877 fps=7.4 q=24.8 size=N/A time=00:00:29.26 bitrate=N/A    frame=  881 fps=7.4 q=24.8 size=N/A time=00:00:29.39 bitrate=N/A    frame=  885 fps=7.4 q=24.8 size=N/A time=00:00:29.52 bitrate=N/A    frame=  889 fps=7.4 q=24.8 size=N/A time=00:00:29.66 bitrate=N/A    frame=  893 fps=7.4 q=24.8 size=N/A time=00:00:29.79 bitrate=N/A    frame=  897 fps=7.4 q=24.8 size=N/A time=00:00:29.92 bitrate=N/A    frame=  901 fps=7.4 q=24.8 size=N/A time=00:00:30.06 bitrate=N/A    frame=  905 fps=7.4 q=24.8 size=N/A time=00:00:30.19 bitrate=N/A    frame=  909 fps=7.4 q=24.8 size=N/A time=00:00:30.33 bitrate=N/A    frame=  913 fps=7.4 q=24.8 size=N/A time=00:00:30.46 bitrate=N/A    frame=  917 fps=7.4 q=24.8 size=N/A time=00:00:30.59 bitrate=N/A    frame=  921 fps=7.4 q=24.8 size=N/A time=00:00:30.73 bitrate=N/A    frame=  925 fps=7.4 q=24.8 size=N/A time=00:00:30.86 bitrate=N/A    frame=  929 fps=7.4 q=24.8 size=N/A time=00:00:30.99 bitrate=N/A    frame=  933 fps=7.4 q=24.8 size=N/A time=00:00:31.13 bitrate=N/A    frame=  937 fps=7.4 q=24.8 size=N/A time=00:00:31.26 bitrate=N/A    frame=  941 fps=7.4 q=24.8 size=N/A time=00:00:31.39 bitrate=N/A    frame=  945 fps=7.4 q=24.8 size=N/A time=00:00:31.53 bitrate=N/A    frame=  949 fps=7.4 q=24.8 size=N/A time=00:00:31.66 bitrate=N/A    frame=  953 fps=7.4 q=24.8 size=N/A time=00:00:31.79 bitrate=N/A    frame=  957 fps=7.4 q=24.8 size=N/A time=00:00:31.93 bitrate=N/A    frame=  961 fps=7.4 q=24.8 size=N/A time=00:00:32.06 bitrate=N/A    frame=  965 fps=7.4 q=24.8 size=N/A time=00:00:32.19 bitrate=N/A    frame=  969 fps=7.4 q=24.8 size=N/A time=00:00:32.33 bitrate=N/A    frame=  973 fps=7.4 q=24.8 size=N/A time=00:00:32.46 bitrate=N/A    frame=  977 fps=7.4 q=24.8 size=N/A time=00:00:32.59 bitrate=N/A    frame=  981 fps=7.4 q=24.8 size=N/A time=00:00:32.73 bitrate=N/A    frame=  985 fps=7.4 q=24.8 size=N/A time=00:00:32.86 bitrate=N/A    frame=  989 fps=7.4 q=24.8 size=N/A time=00:00:32.99 bitrate=N/A    frame=  993 fps=7.5 q=24.8 size=N/A time=00:00:33.13 bitrate=N/A    frame=  997 fps=7.5 q=24.8 size=N/A time=00:00:33.26 bitrate=N/A    frame= 1001 fps=7.5 q=24.8 size=N/A time=00:00:33.40 bitrate=N/A    frame= 1005 fps=7.5 q=24.8 size=N/A time=00:00:33.53 bitrate=N/A    frame= 1009 fps=7.5 q=24.8 size=N/A time=00:00:33.66 bitrate=N/A    frame= 1013 fps=7.5 q=24.8 size=N/A time=00:00:33.80 bitrate=N/A    frame= 1017 fps=7.5 q=24.8 size=N/A time=00:00:33.93 bitrate=N/A    frame= 1021 fps=7.5 q=24.8 size=N/A time=00:00:34.06 bitrate=N/A    frame= 1025 fps=7.5 q=24.8 size=N/A time=00:00:34.20 bitrate=N/A    frame= 1029 fps=7.5 q=24.8 size=N/A time=00:00:34.33 bitrate=N/A    frame= 1033 fps=7.5 q=24.8 size=N/A time=00:00:34.46 bitrate=N/A    frame= 1037 fps=7.5 q=24.8 size=N/A time=00:00:34.60 bitrate=N/A    frame= 1041 fps=7.5 q=24.8 size=N/A time=00:00:34.73 bitrate=N/A    frame= 1045 fps=7.5 q=24.8 size=N/A time=00:00:34.86 bitrate=N/A    frame= 1049 fps=7.5 q=24.8 size=N/A time=00:00:35.00 bitrate=N/A    frame= 1053 fps=7.5 q=24.8 size=N/A time=00:00:35.13 bitrate=N/A    frame= 1057 fps=7.5 q=24.8 size=N/A time=00:00:35.26 bitrate=N/A    frame= 1061 fps=7.5 q=24.8 size=N/A time=00:00:35.40 bitrate=N/A    frame= 1065 fps=7.5 q=24.8 size=N/A time=00:00:35.53 bitrate=N/A    frame= 1069 fps=7.5 q=24.8 size=N/A time=00:00:35.66 bitrate=N/A    frame= 1073 fps=7.5 q=24.8 size=N/A time=00:00:35.80 bitrate=N/A    frame= 1077 fps=7.5 q=24.8 size=N/A time=00:00:35.93 bitrate=N/A    frame= 1081 fps=7.5 q=24.8 size=N/A time=00:00:36.06 bitrate=N/A    frame= 1085 fps=7.5 q=24.8 size=N/A time=00:00:36.20 bitrate=N/A    frame= 1089 fps=7.5 q=24.8 size=N/A time=00:00:36.33 bitrate=N/A    frame= 1093 fps=7.5 q=24.8 size=N/A time=00:00:36.46 bitrate=N/A    frame= 1097 fps=7.5 q=24.8 size=N/A time=00:00:36.60 bitrate=N/A    frame= 1101 fps=7.5 q=24.8 size=N/A time=00:00:36.73 bitrate=N/A    frame= 1105 fps=7.5 q=24.8 size=N/A time=00:00:36.87 bitrate=N/A    frame= 1109 fps=7.5 q=24.8 size=N/A time=00:00:37.00 bitrate=N/A    frame= 1113 fps=7.5 q=24.8 size=N/A time=00:00:37.13 bitrate=N/A    frame= 1117 fps=7.5 q=24.8 size=N/A time=00:00:37.27 bitrate=N/A    frame= 1121 fps=7.5 q=24.8 size=N/A time=00:00:37.40 bitrate=N/A    frame= 1125 fps=7.5 q=24.8 size=N/A time=00:00:37.53 bitrate=N/A    frame= 1129 fps=7.5 q=24.8 size=N/A time=00:00:37.67 bitrate=N/A    frame= 1133 fps=7.5 q=24.8 size=N/A time=00:00:37.80 bitrate=N/A    frame= 1137 fps=7.5 q=24.8 size=N/A time=00:00:37.93 bitrate=N/A    frame= 1141 fps=7.5 q=24.8 size=N/A time=00:00:38.07 bitrate=N/A    frame= 1145 fps=7.5 q=24.8 size=N/A time=00:00:38.20 bitrate=N/A    frame= 1149 fps=7.5 q=24.8 size=N/A time=00:00:38.33 bitrate=N/A    frame= 1153 fps=7.5 q=24.8 size=N/A time=00:00:38.47 bitrate=N/A    frame= 1157 fps=7.5 q=24.8 size=N/A time=00:00:38.60 bitrate=N/A    frame= 1161 fps=7.5 q=24.8 size=N/A time=00:00:38.73 bitrate=N/A    frame= 1165 fps=7.5 q=24.8 size=N/A time=00:00:38.87 bitrate=N/A    frame= 1169 fps=7.5 q=24.8 size=N/A time=00:00:39.00 bitrate=N/A    frame= 1173 fps=7.5 q=24.8 size=N/A time=00:00:39.13 bitrate=N/A    frame= 1177 fps=7.5 q=24.8 size=N/A time=00:00:39.27 bitrate=N/A    frame= 1181 fps=7.5 q=24.8 size=N/A time=00:00:39.40 bitrate=N/A    frame= 1185 fps=7.5 q=24.8 size=N/A time=00:00:39.53 bitrate=N/A    frame= 1189 fps=7.5 q=24.8 size=N/A time=00:00:39.67 bitrate=N/A    frame= 1193 fps=7.5 q=24.8 size=N/A time=00:00:39.80 bitrate=N/A    frame= 1197 fps=7.5 q=24.8 size=N/A time=00:00:39.93 bitrate=N/A    frame= 1201 fps=7.5 q=24.8 size=N/A time=00:00:40.07 bitrate=N/A    frame= 1205 fps=7.5 q=24.8 size=N/A time=00:00:40.20 bitrate=N/A    frame= 1209 fps=7.5 q=24.8 size=N/A time=00:00:40.34 bitrate=N/A    frame= 1213 fps=7.5 q=24.8 size=N/A time=00:00:40.47 bitrate=N/A    frame= 1217 fps=7.5 q=24.8 size=N/A time=00:00:40.60 bitrate=N/A    frame= 1221 fps=7.5 q=24.8 size=N/A time=00:00:40.74 bitrate=N/A    frame= 1225 fps=7.5 q=24.8 size=N/A time=00:00:40.87 bitrate=N/A    frame= 1229 fps=7.5 q=24.8 size=N/A time=00:00:41.00 bitrate=N/A    frame= 1233 fps=7.5 q=24.8 size=N/A time=00:00:41.14 bitrate=N/A    frame= 1237 fps=7.5 q=24.8 size=N/A time=00:00:41.27 bitrate=N/A    frame= 1241 fps=7.5 q=24.8 size=N/A time=00:00:41.40 bitrate=N/A    frame= 1245 fps=7.5 q=24.8 size=N/A time=00:00:41.54 bitrate=N/A    frame= 1249 fps=7.5 q=24.8 size=N/A time=00:00:41.67 bitrate=N/A    frame= 1253 fps=7.5 q=24.8 size=N/A time=00:00:41.80 bitrate=N/A    frame= 1257 fps=7.5 q=24.8 size=N/A time=00:00:41.94 bitrate=N/A    frame= 1261 fps=7.5 q=24.8 size=N/A time=00:00:42.07 bitrate=N/A    frame= 1265 fps=7.5 q=24.8 size=N/A time=00:00:42.20 bitrate=N/A    frame= 1269 fps=7.5 q=24.8 size=N/A time=00:00:42.34 bitrate=N/A    frame= 1273 fps=7.5 q=24.8 size=N/A time=00:00:42.47 bitrate=N/A    frame= 1277 fps=7.5 q=24.8 size=N/A time=00:00:42.60 bitrate=N/A    frame= 1281 fps=7.5 q=24.8 size=N/A time=00:00:42.74 bitrate=N/A    frame= 1285 fps=7.5 q=24.8 size=N/A time=00:00:42.87 bitrate=N/A    frame= 1289 fps=7.5 q=24.8 size=N/A time=00:00:43.00 bitrate=N/A    frame= 1293 fps=7.5 q=24.8 size=N/A time=00:00:43.14 bitrate=N/A    frame= 1297 fps=7.5 q=24.8 size=N/A time=00:00:43.27 bitrate=N/A    frame= 1301 fps=7.5 q=24.8 size=N/A time=00:00:43.41 bitrate=N/A    frame= 1305 fps=7.5 q=24.8 size=N/A time=00:00:43.54 bitrate=N/A    frame= 1309 fps=7.5 q=24.8 size=N/A time=00:00:43.67 bitrate=N/A    frame= 1313 fps=7.5 q=24.8 size=N/A time=00:00:43.81 bitrate=N/A    frame= 1317 fps=7.5 q=24.8 size=N/A time=00:00:43.94 bitrate=N/A    frame= 1321 fps=7.5 q=24.8 size=N/A time=00:00:44.07 bitrate=N/A    frame= 1325 fps=7.5 q=24.8 size=N/A time=00:00:44.21 bitrate=N/A    frame= 1329 fps=7.5 q=24.8 size=N/A time=00:00:44.34 bitrate=N/A    frame= 1333 fps=7.5 q=24.8 size=N/A time=00:00:44.47 bitrate=N/A    frame= 1337 fps=7.5 q=24.8 size=N/A time=00:00:44.61 bitrate=N/A    frame= 1341 fps=7.5 q=24.8 size=N/A time=00:00:44.74 bitrate=N/A    frame= 1345 fps=7.5 q=24.8 size=N/A time=00:00:44.87 bitrate=N/A    frame= 1349 fps=7.5 q=24.8 size=N/A time=00:00:45.01 bitrate=N/A    frame= 1353 fps=7.5 q=24.8 size=N/A time=00:00:45.14 bitrate=N/A    frame= 1357 fps=7.5 q=24.8 size=N/A time=00:00:45.27 bitrate=N/A    frame= 1361 fps=7.5 q=24.8 size=N/A time=00:00:45.41 bitrate=N/A    frame= 1365 fps=7.5 q=24.8 size=N/A time=00:00:45.54 bitrate=N/A    frame= 1369 fps=7.5 q=24.8 size=N/A time=00:00:45.67 bitrate=N/A    frame= 1373 fps=7.5 q=24.8 size=N/A time=00:00:45.81 bitrate=N/A    frame= 1377 fps=7.5 q=24.8 size=N/A time=00:00:45.94 bitrate=N/A    frame= 1381 fps=7.5 q=24.8 size=N/A time=00:00:46.07 bitrate=N/A    frame= 1385 fps=7.5 q=24.8 size=N/A time=00:00:46.21 bitrate=N/A    frame= 1389 fps=7.5 q=24.8 size=N/A time=00:00:46.34 bitrate=N/A    frame= 1393 fps=7.5 q=24.8 size=N/A time=00:00:46.47 bitrate=N/A    frame= 1397 fps=7.5 q=24.8 size=N/A time=00:00:46.61 bitrate=N/A    frame= 1401 fps=7.5 q=24.8 size=N/A time=00:00:46.74 bitrate=N/A    frame= 1402 fps=7.5 q=24.8 Lsize=N/A time=00:00:46.78 bitrate=N/A    
video:1428281kB audio:0kB subtitle:0kB other streams:0kB global headers:0kB muxing overhead: unknown
+ turkic load DJI_0022_vadvalto_Kotcse_2018.04.25._napos_kalaszos_T1 /home/horvathandras/vatic/vatic/videos/DJI_0022_vadvalto_Kotcse_2018.04.25._napos_kalaszos_T1 $'Pozit\303\255vROI' $'Negat\303\255vROI' $'T\303\272r\303\241s' '~Friss' '~Régebbi' $'R\303\241g\303\241s' '~Friss' '~Régebbi' $'T\303\266r\303\251s' '~Friss' '~Régebbi' $'Tapos\303\241s' '~Friss' '~Régebbi' $'Eg\303\251szs\303\251gesN\303\266v\303\251ny' $'Egy\303\251b1' $'Egy\303\251b2' $'Egy\303\251b3' $'Egy\303\251b4' $'Egy\303\251b5' --offline --title '$filenameNoDot Video' --length 1000 --description 'vatic annotation'
+ turkic publish --offline
+ mkdir /home/horvathandras/vatic/vatic/public/videothumbnails/DJI_0022_vadvalto_Kotcse_2018.04.25._napos_kalaszos_T1
mkdir: cannot create directory '/home/horvathandras/vatic/vatic/public/videothumbnails/DJI_0022_vadvalto_Kotcse_2018.04.25._napos_kalaszos_T1': File exists
+ cp /home/horvathandras/vatic/vatic/videos/DJI_0022_vadvalto_Kotcse_2018.04.25._napos_kalaszos_T1/0/0/31.jpg /home/horvathandras/vatic/vatic/public/videothumbnails/DJI_0022_vadvalto_Kotcse_2018.04.25._napos_kalaszos_T1/thumb.jpg
